<?xml version="1.0" encoding="UTF-8" standalone="no"?>
<!DOCTYPE svg PUBLIC "-//W3C//DTD SVG 1.1//EN"
 "http://www.w3.org/Graphics/SVG/1.1/DTD/svg11.dtd">
<!-- Generated by graphviz version 2.38.0 (20140413.2041)
 -->
<!-- Title: controllers_diagram Pages: 1 -->
<svg width="740pt" height="707pt"
 viewBox="0.00 0.00 739.76 707.00" xmlns="http://www.w3.org/2000/svg" xmlns:xlink="http://www.w3.org/1999/xlink">
<g id="graph0" class="graph" transform="scale(1 1) rotate(0) translate(275.935 383.5)">
<title>controllers_diagram</title>
<polygon fill="none" stroke="none" points="-275.935,323.5 -275.935,-383.5 463.821,-383.5 463.821,323.5 -275.935,323.5"/>
<!-- _diagram_info -->
<g id="node1" class="node"><title>_diagram_info</title>
<text text-anchor="start" x="-216.45" y="164.9" font-family="Times,serif" font-size="13.00">Controllers diagram</text>
<text text-anchor="start" x="-216.45" y="177.9" font-family="Times,serif" font-size="13.00">Date: Jan 12 2017 &#45; 18:56</text>
<text text-anchor="start" x="-216.45" y="190.9" font-family="Times,serif" font-size="13.00">Migration version: 20170112214846</text>
<text text-anchor="start" x="-216.45" y="203.9" font-family="Times,serif" font-size="13.00">Generated by RailRoady 1.5.2</text>
<text text-anchor="start" x="-216.45" y="216.9" font-family="Times,serif" font-size="13.00">http://railroady.prestonlee.com</text>
</g>
<!-- ApplicationController -->
<g id="node2" class="node"><title>ApplicationController</title>
<path fill="none" stroke="black" d="M332.179,319C332.179,319 447.821,319 447.821,319 453.821,319 459.821,313 459.821,307 459.821,307 459.821,239 459.821,239 459.821,233 453.821,227 447.821,227 447.821,227 332.179,227 332.179,227 326.179,227 320.179,233 320.179,239 320.179,239 320.179,307 320.179,307 320.179,313 326.179,319 332.179,319"/>
<text text-anchor="middle" x="390" y="242.2" font-family="Times,serif" font-size="14.00">ApplicationController</text>
<polyline fill="none" stroke="black" points="320.179,249 459.821,249 "/>
<polyline fill="none" stroke="black" points="320.179,273 459.821,273 "/>
<polyline fill="none" stroke="black" points="320.179,297 459.821,297 "/>
<text text-anchor="start" x="328.179" y="312.2" font-family="Times,serif" font-size="14.00">_layout</text>
</g>
<!-- CompaniesController -->
<g id="node3" class="node"><title>CompaniesController</title>
<path fill="none" stroke="black" d="M-68.269,111C-68.269,111 44.269,111 44.269,111 50.269,111 56.269,105 56.269,99 56.269,99 56.269,-79 56.269,-79 56.269,-85 50.269,-91 44.269,-91 44.269,-91 -68.269,-91 -68.269,-91 -74.269,-91 -80.269,-85 -80.269,-79 -80.269,-79 -80.269,99 -80.269,99 -80.269,105 -74.269,111 -68.269,111"/>
<text text-anchor="middle" x="-12" y="-75.8" font-family="Times,serif" font-size="14.00">CompaniesController</text>
<polyline fill="none" stroke="black" points="-80.269,-69 56.269,-69 "/>
<text text-anchor="start" x="-72.269" y="-53.8" font-family="Times,serif" font-size="14.00">index</text>
<text text-anchor="start" x="-72.269" y="-39.8" font-family="Times,serif" font-size="14.00">destroy</text>
<text text-anchor="start" x="-72.269" y="-25.8" font-family="Times,serif" font-size="14.00">edit</text>
<text text-anchor="start" x="-72.269" y="-11.8" font-family="Times,serif" font-size="14.00">create</text>
<text text-anchor="start" x="-72.269" y="2.2" font-family="Times,serif" font-size="14.00">new</text>
<text text-anchor="start" x="-72.269" y="16.2" font-family="Times,serif" font-size="14.00">show</text>
<text text-anchor="start" x="-72.269" y="30.2" font-family="Times,serif" font-size="14.00">update</text>
<polyline fill="none" stroke="black" points="-80.269,37 56.269,37 "/>
<polyline fill="none" stroke="black" points="-80.269,61 56.269,61 "/>
<text text-anchor="start" x="-72.269" y="76.2" font-family="Times,serif" font-size="14.00">_layout</text>
<text text-anchor="start" x="-72.269" y="90.2" font-family="Times,serif" font-size="14.00">company_params</text>
<text text-anchor="start" x="-72.269" y="104.2" font-family="Times,serif" font-size="14.00">set_company</text>
</g>
<!-- HousesController -->
<g id="node4" class="node"><title>HousesController</title>
<path fill="none" stroke="black" d="M-36.3828,-129C-36.3828,-129 54.3828,-129 54.3828,-129 60.3828,-129 66.3828,-135 66.3828,-141 66.3828,-141 66.3828,-319 66.3828,-319 66.3828,-325 60.3828,-331 54.3828,-331 54.3828,-331 -36.3828,-331 -36.3828,-331 -42.3828,-331 -48.3828,-325 -48.3828,-319 -48.3828,-319 -48.3828,-141 -48.3828,-141 -48.3828,-135 -42.3828,-129 -36.3828,-129"/>
<text text-anchor="middle" x="9" y="-315.8" font-family="Times,serif" font-size="14.00">HousesController</text>
<polyline fill="none" stroke="black" points="-48.3828,-309 66.3828,-309 "/>
<text text-anchor="start" x="-40.3828" y="-293.8" font-family="Times,serif" font-size="14.00">index</text>
<text text-anchor="start" x="-40.3828" y="-279.8" font-family="Times,serif" font-size="14.00">destroy</text>
<text text-anchor="start" x="-40.3828" y="-265.8" font-family="Times,serif" font-size="14.00">edit</text>
<text text-anchor="start" x="-40.3828" y="-251.8" font-family="Times,serif" font-size="14.00">create</text>
<text text-anchor="start" x="-40.3828" y="-237.8" font-family="Times,serif" font-size="14.00">new</text>
<text text-anchor="start" x="-40.3828" y="-223.8" font-family="Times,serif" font-size="14.00">show</text>
<text text-anchor="start" x="-40.3828" y="-209.8" font-family="Times,serif" font-size="14.00">update</text>
<polyline fill="none" stroke="black" points="-48.3828,-203 66.3828,-203 "/>
<polyline fill="none" stroke="black" points="-48.3828,-179 66.3828,-179 "/>
<text text-anchor="start" x="-40.3828" y="-163.8" font-family="Times,serif" font-size="14.00">_layout</text>
<text text-anchor="start" x="-40.3828" y="-149.8" font-family="Times,serif" font-size="14.00">house_params</text>
<text text-anchor="start" x="-40.3828" y="-135.8" font-family="Times,serif" font-size="14.00">set_house</text>
</g>
<!-- PublicController -->
<g id="node5" class="node"><title>PublicController</title>
<path fill="none" stroke="black" d="M332.338,-177C332.338,-177 417.662,-177 417.662,-177 423.662,-177 429.662,-183 429.662,-189 429.662,-189 429.662,-255 429.662,-255 429.662,-261 423.662,-267 417.662,-267 417.662,-267 332.338,-267 332.338,-267 326.338,-267 320.338,-261 320.338,-255 320.338,-255 320.338,-189 320.338,-189 320.338,-183 326.338,-177 332.338,-177"/>
<text text-anchor="middle" x="375" y="-251.8" font-family="Times,serif" font-size="14.00">PublicController</text>
<polyline fill="none" stroke="black" points="320.338,-245 429.662,-245 "/>
<text text-anchor="start" x="328.338" y="-229.8" font-family="Times,serif" font-size="14.00">index</text>
<polyline fill="none" stroke="black" points="320.338,-223 429.662,-223 "/>
<polyline fill="none" stroke="black" points="320.338,-199 429.662,-199 "/>
<text text-anchor="start" x="328.338" y="-183.8" font-family="Times,serif" font-size="14.00">_layout</text>
</g>
<!-- Users::ConfirmationsController -->
<g id="node6" class="node"><title>Users::ConfirmationsController</title>
<path fill="none" stroke="black" d="M108.338,223C108.338,223 277.662,223 277.662,223 283.662,223 289.662,217 289.662,211 289.662,211 289.662,143 289.662,143 289.662,137 283.662,131 277.662,131 277.662,131 108.338,131 108.338,131 102.338,131 96.3379,137 96.3379,143 96.3379,143 96.3379,211 96.3379,211 96.3379,217 102.338,223 108.338,223"/>
<text text-anchor="middle" x="193" y="146.2" font-family="Times,serif" font-size="14.00">Users::ConfirmationsController</text>
<polyline fill="none" stroke="black" points="96.3379,153 289.662,153 "/>
<polyline fill="none" stroke="black" points="96.3379,177 289.662,177 "/>
<polyline fill="none" stroke="black" points="96.3379,201 289.662,201 "/>
<text text-anchor="start" x="104.338" y="216.2" font-family="Times,serif" font-size="14.00">_layout</text>
</g>
<!-- Users::OmniauthCallbacksController -->
<g id="node7" class="node"><title>Users::OmniauthCallbacksController</title>
<path fill="none" stroke="black" d="M107.796,95C107.796,95 308.204,95 308.204,95 314.204,95 320.204,89 320.204,83 320.204,83 320.204,15 320.204,15 320.204,9 314.204,3 308.204,3 308.204,3 107.796,3 107.796,3 101.796,3 95.7964,9 95.7964,15 95.7964,15 95.7964,83 95.7964,83 95.7964,89 101.796,95 107.796,95"/>
<text text-anchor="middle" x="208" y="18.2" font-family="Times,serif" font-size="14.00">Users::OmniauthCallbacksController</text>
<polyline fill="none" stroke="black" points="95.7964,25 320.204,25 "/>
<polyline fill="none" stroke="black" points="95.7964,49 320.204,49 "/>
<polyline fill="none" stroke="black" points="95.7964,73 320.204,73 "/>
<text text-anchor="start" x="103.796" y="88.2" font-family="Times,serif" font-size="14.00">_layout</text>
</g>
<!-- Users::PasswordsController -->
<g id="node8" class="node"><title>Users::PasswordsController</title>
<path fill="none" stroke="black" d="M-244.162,-257C-244.162,-257 -95.8379,-257 -95.8379,-257 -89.8379,-257 -83.8379,-263 -83.8379,-269 -83.8379,-269 -83.8379,-337 -83.8379,-337 -83.8379,-343 -89.8379,-349 -95.8379,-349 -95.8379,-349 -244.162,-349 -244.162,-349 -250.162,-349 -256.162,-343 -256.162,-337 -256.162,-337 -256.162,-269 -256.162,-269 -256.162,-263 -250.162,-257 -244.162,-257"/>
<text text-anchor="middle" x="-170" y="-333.8" font-family="Times,serif" font-size="14.00">Users::PasswordsController</text>
<polyline fill="none" stroke="black" points="-256.162,-327 -83.8379,-327 "/>
<polyline fill="none" stroke="black" points="-256.162,-303 -83.8379,-303 "/>
<polyline fill="none" stroke="black" points="-256.162,-279 -83.8379,-279 "/>
<text text-anchor="start" x="-248.162" y="-263.8" font-family="Times,serif" font-size="14.00">_layout</text>
</g>
<!-- Users::RegistrationsController -->
<g id="node9" class="node"><title>Users::RegistrationsController</title>
<path fill="none" stroke="black" d="M108.424,-33C108.424,-33 295.576,-33 295.576,-33 301.576,-33 307.576,-39 307.576,-45 307.576,-45 307.576,-125 307.576,-125 307.576,-131 301.576,-137 295.576,-137 295.576,-137 108.424,-137 108.424,-137 102.424,-137 96.4238,-131 96.4238,-125 96.4238,-125 96.4238,-45 96.4238,-45 96.4238,-39 102.424,-33 108.424,-33"/>
<text text-anchor="middle" x="202" y="-121.8" font-family="Times,serif" font-size="14.00">Users::RegistrationsController</text>
<polyline fill="none" stroke="black" points="96.4238,-115 307.576,-115 "/>
<text text-anchor="start" x="104.424" y="-99.8" font-family="Times,serif" font-size="14.00">configure_account_update_params</text>
<text text-anchor="start" x="104.424" y="-85.8" font-family="Times,serif" font-size="14.00">configure_sign_up_params</text>
<polyline fill="none" stroke="black" points="96.4238,-79 307.576,-79 "/>
<polyline fill="none" stroke="black" points="96.4238,-55 307.576,-55 "/>
<text text-anchor="start" x="104.424" y="-39.8" font-family="Times,serif" font-size="14.00">_layout</text>
</g>
<!-- Users::SessionsController -->
<g id="node10" class="node"><title>Users::SessionsController</title>
<path fill="none" stroke="black" d="M-227.721,-129C-227.721,-129 -90.2793,-129 -90.2793,-129 -84.2793,-129 -78.2793,-135 -78.2793,-141 -78.2793,-141 -78.2793,-209 -78.2793,-209 -78.2793,-215 -84.2793,-221 -90.2793,-221 -90.2793,-221 -227.721,-221 -227.721,-221 -233.721,-221 -239.721,-215 -239.721,-209 -239.721,-209 -239.721,-141 -239.721,-141 -239.721,-135 -233.721,-129 -227.721,-129"/>
<text text-anchor="middle" x="-159" y="-205.8" font-family="Times,serif" font-size="14.00">Users::SessionsController</text>
<polyline fill="none" stroke="black" points="-239.721,-199 -78.2793,-199 "/>
<polyline fill="none" stroke="black" points="-239.721,-175 -78.2793,-175 "/>
<polyline fill="none" stroke="black" points="-239.721,-151 -78.2793,-151 "/>
<text text-anchor="start" x="-231.721" y="-135.8" font-family="Times,serif" font-size="14.00">_layout</text>
</g>
<!-- Users::UnlocksController -->
<g id="node11" class="node"><title>Users::UnlocksController</title>
<path fill="none" stroke="black" d="M-259.935,-1C-259.935,-1 -124.065,-1 -124.065,-1 -118.065,-1 -112.065,-7 -112.065,-13 -112.065,-13 -112.065,-81 -112.065,-81 -112.065,-87 -118.065,-93 -124.065,-93 -124.065,-93 -259.935,-93 -259.935,-93 -265.935,-93 -271.935,-87 -271.935,-81 -271.935,-81 -271.935,-13 -271.935,-13 -271.935,-7 -265.935,-1 -259.935,-1"/>
<text text-anchor="middle" x="-192" y="-77.8" font-family="Times,serif" font-size="14.00">Users::UnlocksController</text>
<polyline fill="none" stroke="black" points="-271.935,-71 -112.065,-71 "/>
<polyline fill="none" stroke="black" points="-271.935,-47 -112.065,-47 "/>
<polyline fill="none" stroke="black" points="-271.935,-23 -112.065,-23 "/>
<text text-anchor="start" x="-263.935" y="-7.8" font-family="Times,serif" font-size="14.00">_layout</text>
</g>
<!-- UsersController -->
<g id="node12" class="node"><title>UsersController</title>
<path fill="none" stroke="black" d="M188.286,-177C188.286,-177 269.714,-177 269.714,-177 275.714,-177 281.714,-183 281.714,-189 281.714,-189 281.714,-367 281.714,-367 281.714,-373 275.714,-379 269.714,-379 269.714,-379 188.286,-379 188.286,-379 182.286,-379 176.286,-373 176.286,-367 176.286,-367 176.286,-189 176.286,-189 176.286,-183 182.286,-177 188.286,-177"/>
<text text-anchor="middle" x="229" y="-363.8" font-family="Times,serif" font-size="14.00">UsersController</text>
<polyline fill="none" stroke="black" points="176.286,-357 281.714,-357 "/>
<text text-anchor="start" x="184.286" y="-341.8" font-family="Times,serif" font-size="14.00">index</text>
<text text-anchor="start" x="184.286" y="-327.8" font-family="Times,serif" font-size="14.00">destroy</text>
<text text-anchor="start" x="184.286" y="-313.8" font-family="Times,serif" font-size="14.00">edit</text>
<text text-anchor="start" x="184.286" y="-299.8" font-family="Times,serif" font-size="14.00">create</text>
<text text-anchor="start" x="184.286" y="-285.8" font-family="Times,serif" font-size="14.00">new</text>
<text text-anchor="start" x="184.286" y="-271.8" font-family="Times,serif" font-size="14.00">show</text>
<text text-anchor="start" x="184.286" y="-257.8" font-family="Times,serif" font-size="14.00">update</text>
<polyline fill="none" stroke="black" points="176.286,-251 281.714,-251 "/>
<polyline fill="none" stroke="black" points="176.286,-227 281.714,-227 "/>
<text text-anchor="start" x="184.286" y="-211.8" font-family="Times,serif" font-size="14.00">_layout</text>
<text text-anchor="start" x="184.286" y="-197.8" font-family="Times,serif" font-size="14.00">set_user</text>
<text text-anchor="start" x="184.286" y="-183.8" font-family="Times,serif" font-size="14.00">user_params</text>
</g>
</g>
</svg>
