<?xml version="1.0" encoding="UTF-8" standalone="no"?>
<!DOCTYPE svg PUBLIC "-//W3C//DTD SVG 1.1//EN"
 "http://www.w3.org/Graphics/SVG/1.1/DTD/svg11.dtd">
<!-- Generated by graphviz version 2.38.0 (20140413.2041)
 -->
<!-- Title: models_diagram Pages: 1 -->
<svg width="781pt" height="369pt"
 viewBox="0.00 0.00 780.95 369.00" xmlns="http://www.w3.org/2000/svg" xmlns:xlink="http://www.w3.org/1999/xlink">
<g id="graph0" class="graph" transform="scale(1 1) rotate(0) translate(4 365)">
<title>models_diagram</title>
<polygon fill="none" stroke="none" points="-4,4 -4,-365 776.946,-365 776.946,4 -4,4"/>
<!-- _diagram_info -->
<g id="node1" class="node"><title>_diagram_info</title>
<text text-anchor="start" x="8" y="-346.6" font-family="Times,serif" font-size="13.00">Models diagram</text>
<text text-anchor="start" x="8" y="-333.6" font-family="Times,serif" font-size="13.00">Date: Jan 12 2017 &#45; 18:56</text>
<text text-anchor="start" x="8" y="-320.6" font-family="Times,serif" font-size="13.00">Migration version: 20170112214846</text>
<text text-anchor="start" x="8" y="-307.6" font-family="Times,serif" font-size="13.00">Generated by RailRoady 1.5.2</text>
<text text-anchor="start" x="8" y="-294.6" font-family="Times,serif" font-size="13.00">http://railroady.prestonlee.com</text>
</g>
<!-- Ability -->
<g id="node2" class="node"><title>Ability</title>
<polygon fill="none" stroke="black" points="280.12,-342.5 224.78,-342.5 224.78,-306.5 280.12,-306.5 280.12,-342.5"/>
<text text-anchor="middle" x="252.45" y="-320.3" font-family="Times,serif" font-size="14.00">Ability</text>
</g>
<!-- AdminUser -->
<g id="node3" class="node"><title>AdminUser</title>
<ellipse fill="none" stroke="black" cx="349.45" cy="-324.5" rx="51.2415" ry="18"/>
<text text-anchor="middle" x="349.45" y="-320.3" font-family="Times,serif" font-size="14.00">AdminUser</text>
</g>
<!-- ApplicationRecord -->
<g id="node4" class="node"><title>ApplicationRecord</title>
<ellipse fill="none" stroke="black" cx="496.45" cy="-324.5" rx="77.2916" ry="18"/>
<text text-anchor="middle" x="496.45" y="-320.3" font-family="Times,serif" font-size="14.00">ApplicationRecord</text>
</g>
<!-- Company -->
<g id="node5" class="node"><title>Company</title>
<ellipse fill="none" stroke="black" cx="728.45" cy="-324.5" rx="44.4923" ry="18"/>
<text text-anchor="middle" x="728.45" y="-320.3" font-family="Times,serif" font-size="14.00">Company</text>
</g>
<!-- House -->
<g id="node7" class="node"><title>House</title>
<ellipse fill="none" stroke="black" cx="627.45" cy="-234" rx="32.9081" ry="18"/>
<text text-anchor="middle" x="627.45" y="-229.8" font-family="Times,serif" font-size="14.00">House</text>
</g>
<!-- Company&#45;&gt;House -->
<g id="edge1" class="edge"><title>Company&#45;&gt;House</title>
<path fill="none" stroke="#930012" d="M703.906,-301.994C688.184,-288.218 667.853,-270.403 652.109,-256.607"/>
<ellipse fill="none" stroke="#930012" cx="707.384" cy="-305.042" rx="4.00002" ry="4.00002"/>
<polygon fill="#930012" stroke="#930012" points="651.864,-256.392 647.308,-246.417 648.103,-253.097 644.342,-249.802 644.342,-249.802 644.342,-249.802 648.103,-253.097 641.377,-253.187 651.864,-256.392 651.864,-256.392"/>
</g>
<!-- Fav -->
<g id="node6" class="node"><title>Fav</title>
<ellipse fill="none" stroke="black" cx="679.45" cy="-162" rx="27" ry="18"/>
<text text-anchor="middle" x="679.45" y="-157.8" font-family="Times,serif" font-size="14.00">Fav</text>
</g>
<!-- Fav&#45;&gt;House -->
<g id="edge3" class="edge"><title>Fav&#45;&gt;House</title>
<path fill="none" stroke="#c70988" d="M668.382,-186.538C663.156,-194.191 656.844,-202.666 650.71,-210.26"/>
<ellipse fill="none" stroke="#c70988" cx="670.635" cy="-183.127" rx="4.00002" ry="4.00002"/>
<polygon fill="#c70988" stroke="#c70988" points="650.525,-210.481 640.66,-215.269 647.319,-214.318 644.114,-218.155 644.114,-218.155 644.114,-218.155 647.319,-214.318 647.567,-221.04 650.525,-210.481 650.525,-210.481"/>
</g>
<!-- User -->
<g id="node10" class="node"><title>User</title>
<ellipse fill="none" stroke="black" cx="679.45" cy="-90" rx="27" ry="18"/>
<text text-anchor="middle" x="679.45" y="-85.8" font-family="Times,serif" font-size="14.00">User</text>
</g>
<!-- Fav&#45;&gt;User -->
<g id="edge2" class="edge"><title>Fav&#45;&gt;User</title>
<path fill="none" stroke="#d85cb0" d="M672.962,-136.207C672.654,-130.36 672.617,-124.098 672.853,-118.153"/>
<ellipse fill="none" stroke="#d85cb0" cx="673.295" cy="-140.423" rx="4" ry="4"/>
<polygon fill="#d85cb0" stroke="#d85cb0" points="672.868,-117.932 678.059,-108.272 673.219,-112.944 673.57,-107.956 673.57,-107.956 673.57,-107.956 673.219,-112.944 669.081,-107.64 672.868,-117.932 672.868,-117.932"/>
</g>
<!-- House&#45;&gt;Fav -->
<g id="edge4" class="edge"><title>House&#45;&gt;Fav</title>
<path fill="none" stroke="#f2dffe" d="M638.648,-209.272C644.045,-201.381 650.582,-192.635 656.879,-184.889"/>
<ellipse fill="none" stroke="#f2dffe" cx="636.367" cy="-212.719" rx="4.00002" ry="4.00002"/>
<polygon fill="#f2dffe" stroke="#f2dffe" points="657.111,-184.614 666.995,-179.865 660.332,-180.79 663.553,-176.966 663.553,-176.966 663.553,-176.966 660.332,-180.79 660.111,-174.067 657.111,-184.614 657.111,-184.614"/>
</g>
<!-- Quotation -->
<g id="node8" class="node"><title>Quotation</title>
<ellipse fill="none" stroke="black" cx="577.45" cy="-18" rx="45.4527" ry="18"/>
<text text-anchor="middle" x="577.45" y="-13.8" font-family="Times,serif" font-size="14.00">Quotation</text>
</g>
<!-- House&#45;&gt;Quotation -->
<g id="edge5" class="edge"><title>House&#45;&gt;Quotation</title>
<path fill="none" stroke="#a5c29c" d="M617.181,-208.323C604.799,-167.911 586.057,-87.9294 579.098,-46.0341"/>
<ellipse fill="none" stroke="#a5c29c" cx="618.473" cy="-212.395" rx="4.00001" ry="4.00001"/>
<polygon fill="#a5c29c" stroke="#a5c29c" points="579.076,-45.8947 582.008,-35.328 578.318,-40.9525 577.56,-36.0103 577.56,-36.0103 577.56,-36.0103 578.318,-40.9525 573.112,-36.6927 579.076,-45.8947 579.076,-45.8947"/>
</g>
<!-- Quotation&#45;&gt;House -->
<g id="edge6" class="edge"><title>Quotation&#45;&gt;House</title>
<path fill="none" stroke="#7465de" d="M587.721,-43.6838C600.075,-84.0086 618.759,-163.716 625.755,-205.685"/>
<ellipse fill="none" stroke="#7465de" cx="586.473" cy="-39.7482" rx="4.00001" ry="4.00001"/>
<polygon fill="#7465de" stroke="#7465de" points="625.798,-205.966 622.872,-216.534 626.559,-210.907 627.32,-215.849 627.32,-215.849 627.32,-215.849 626.559,-210.907 631.768,-215.164 625.798,-205.966 625.798,-205.966"/>
</g>
<!-- Region -->
<g id="node9" class="node"><title>Region</title>
<ellipse fill="none" stroke="black" cx="627.45" cy="-324.5" rx="35.806" ry="18"/>
<text text-anchor="middle" x="627.45" y="-320.3" font-family="Times,serif" font-size="14.00">Region</text>
</g>
<!-- Region&#45;&gt;House -->
<g id="edge7" class="edge"><title>Region&#45;&gt;House</title>
<path fill="none" stroke="#ee194c" d="M627.45,-298.189C627.45,-286.971 627.45,-273.752 627.45,-262.311"/>
<ellipse fill="none" stroke="#ee194c" cx="627.45" cy="-302.436" rx="4" ry="4"/>
<polygon fill="#ee194c" stroke="#ee194c" points="627.45,-262.011 631.95,-252.011 627.45,-257.011 627.45,-252.011 627.45,-252.011 627.45,-252.011 627.45,-257.011 622.95,-252.011 627.45,-262.011 627.45,-262.011"/>
</g>
<!-- User&#45;&gt;Company -->
<g id="edge10" class="edge"><title>User&#45;&gt;Company</title>
<path fill="none" stroke="#ceeb8e" d="M697.91,-112.594C704.641,-121.7 711.551,-132.781 715.45,-144 733.343,-195.487 732.886,-260.158 730.78,-296.135"/>
<ellipse fill="none" stroke="#ceeb8e" cx="695.297" cy="-109.211" rx="4.00002" ry="4.00002"/>
<polygon fill="#ceeb8e" stroke="#ceeb8e" points="730.765,-296.356 725.602,-306.03 730.428,-301.345 730.091,-306.333 730.091,-306.333 730.091,-306.333 730.428,-301.345 734.581,-306.636 730.765,-296.356 730.765,-296.356"/>
</g>
<!-- User&#45;&gt;Fav -->
<g id="edge8" class="edge"><title>User&#45;&gt;Fav</title>
<path fill="none" stroke="#35fc6a" d="M685.957,-116.16C686.253,-122.013 686.278,-128.266 686.033,-134.187"/>
<ellipse fill="none" stroke="#35fc6a" cx="685.634" cy="-111.945" rx="4" ry="4"/>
<polygon fill="#35fc6a" stroke="#35fc6a" points="686.015,-134.437 680.801,-144.085 685.652,-139.424 685.29,-144.411 685.29,-144.411 685.29,-144.411 685.652,-139.424 689.778,-144.737 686.015,-134.437 686.015,-134.437"/>
</g>
<!-- User&#45;&gt;House -->
<g id="edge9" class="edge"><title>User&#45;&gt;House</title>
<path fill="none" stroke="#3a0ada" d="M661.587,-112.819C654.942,-121.958 647.935,-133.002 643.45,-144 635.409,-163.715 631.397,-187.519 629.402,-205.547"/>
<ellipse fill="none" stroke="#3a0ada" cx="664.142" cy="-109.429" rx="4.00002" ry="4.00002"/>
<polygon fill="#3a0ada" stroke="#3a0ada" points="629.385,-205.724 623.945,-215.246 628.905,-210.701 628.424,-215.678 628.424,-215.678 628.424,-215.678 628.905,-210.701 632.903,-216.111 629.385,-205.724 629.385,-205.724"/>
</g>
<!-- User&#45;&gt;Quotation -->
<g id="edge11" class="edge"><title>User&#45;&gt;Quotation</title>
<path fill="none" stroke="#bc04da" d="M654.347,-71.7729C640.28,-62.1188 622.634,-50.0089 607.795,-39.8254"/>
<ellipse fill="none" stroke="#bc04da" cx="657.916" cy="-74.222" rx="4.00002" ry="4.00002"/>
<polygon fill="#bc04da" stroke="#bc04da" points="607.676,-39.7438 601.977,-30.375 603.554,-36.9145 599.431,-34.0853 599.431,-34.0853 599.431,-34.0853 603.554,-36.9145 596.885,-37.7956 607.676,-39.7438 607.676,-39.7438"/>
</g>
</g>
</svg>
