<?xml version="1.0" encoding="UTF-8" standalone="no"?>
<!DOCTYPE svg PUBLIC "-//W3C//DTD SVG 1.1//EN"
 "http://www.w3.org/Graphics/SVG/1.1/DTD/svg11.dtd">
<!-- Generated by graphviz version 2.38.0 (20140413.2041)
 -->
<!-- Title: models_diagram Pages: 1 -->
<svg width="1339pt" height="1063pt"
 viewBox="0.00 0.00 1339.31 1063.00" xmlns="http://www.w3.org/2000/svg" xmlns:xlink="http://www.w3.org/1999/xlink">
<g id="graph0" class="graph" transform="scale(1 1) rotate(0) translate(4 1059)">
<title>models_diagram</title>
<polygon fill="none" stroke="none" points="-4,4 -4,-1059 1335.31,-1059 1335.31,4 -4,4"/>
<!-- _diagram_info -->
<g id="node1" class="node"><title>_diagram_info</title>
<text text-anchor="start" x="8" y="-970.6" font-family="Times,serif" font-size="13.00">Models diagram</text>
<text text-anchor="start" x="8" y="-957.6" font-family="Times,serif" font-size="13.00">Date: Jan 12 2017 &#45; 18:56</text>
<text text-anchor="start" x="8" y="-944.6" font-family="Times,serif" font-size="13.00">Migration version: 20170112214846</text>
<text text-anchor="start" x="8" y="-931.6" font-family="Times,serif" font-size="13.00">Generated by RailRoady 1.5.2</text>
<text text-anchor="start" x="8" y="-918.6" font-family="Times,serif" font-size="13.00">http://railroady.prestonlee.com</text>
</g>
<!-- Ability -->
<g id="node2" class="node"><title>Ability</title>
<polygon fill="none" stroke="black" points="224.615,-926.5 224.615,-970.5 280.284,-970.5 280.284,-926.5 224.615,-926.5"/>
<text text-anchor="middle" x="252.45" y="-955.3" font-family="Times,serif" font-size="14.00">Ability</text>
<polyline fill="none" stroke="black" points="224.615,-948.5 280.284,-948.5 "/>
<text text-anchor="middle" x="252.45" y="-933.3" font-family="Times,serif" font-size="14.00"> </text>
</g>
<!-- AdminUser -->
<g id="node3" class="node"><title>AdminUser</title>
<path fill="none" stroke="black" d="M309.815,-842.5C309.815,-842.5 605.084,-842.5 605.084,-842.5 611.084,-842.5 617.084,-848.5 617.084,-854.5 617.084,-854.5 617.084,-1042.5 617.084,-1042.5 617.084,-1048.5 611.084,-1054.5 605.084,-1054.5 605.084,-1054.5 309.815,-1054.5 309.815,-1054.5 303.815,-1054.5 297.815,-1048.5 297.815,-1042.5 297.815,-1042.5 297.815,-854.5 297.815,-854.5 297.815,-848.5 303.815,-842.5 309.815,-842.5"/>
<text text-anchor="middle" x="457.45" y="-1039.3" font-family="Times,serif" font-size="14.00">AdminUser</text>
<polyline fill="none" stroke="black" points="297.815,-1032.5 617.084,-1032.5 "/>
<text text-anchor="start" x="305.815" y="-1017.3" font-family="Times,serif" font-size="14.00">updated_at :timestamp without time zone</text>
<text text-anchor="start" x="305.815" y="-1003.3" font-family="Times,serif" font-size="14.00">email :character varying</text>
<text text-anchor="start" x="305.815" y="-989.3" font-family="Times,serif" font-size="14.00">encrypted_password :character varying</text>
<text text-anchor="start" x="305.815" y="-975.3" font-family="Times,serif" font-size="14.00">reset_password_token :character varying</text>
<text text-anchor="start" x="305.815" y="-961.3" font-family="Times,serif" font-size="14.00">reset_password_sent_at :timestamp without time zone</text>
<text text-anchor="start" x="305.815" y="-947.3" font-family="Times,serif" font-size="14.00">remember_created_at :timestamp without time zone</text>
<text text-anchor="start" x="305.815" y="-933.3" font-family="Times,serif" font-size="14.00">sign_in_count :integer</text>
<text text-anchor="start" x="305.815" y="-919.3" font-family="Times,serif" font-size="14.00">current_sign_in_at :timestamp without time zone</text>
<text text-anchor="start" x="305.815" y="-905.3" font-family="Times,serif" font-size="14.00">last_sign_in_at :timestamp without time zone</text>
<text text-anchor="start" x="305.815" y="-891.3" font-family="Times,serif" font-size="14.00">current_sign_in_ip :inet</text>
<text text-anchor="start" x="305.815" y="-877.3" font-family="Times,serif" font-size="14.00">last_sign_in_ip :inet</text>
<text text-anchor="start" x="305.815" y="-863.3" font-family="Times,serif" font-size="14.00">created_at :timestamp without time zone</text>
<text text-anchor="start" x="305.815" y="-849.3" font-family="Times,serif" font-size="14.00">id :integer</text>
</g>
<!-- ApplicationRecord -->
<g id="node4" class="node"><title>ApplicationRecord</title>
<ellipse fill="none" stroke="black" cx="712.45" cy="-948.5" rx="77.2916" ry="18"/>
<text text-anchor="middle" x="712.45" y="-944.3" font-family="Times,serif" font-size="14.00">ApplicationRecord</text>
</g>
<!-- Company -->
<g id="node5" class="node"><title>Company</title>
<path fill="none" stroke="black" d="M1095.59,-870.5C1095.59,-870.5 1319.31,-870.5 1319.31,-870.5 1325.31,-870.5 1331.31,-876.5 1331.31,-882.5 1331.31,-882.5 1331.31,-1014.5 1331.31,-1014.5 1331.31,-1020.5 1325.31,-1026.5 1319.31,-1026.5 1319.31,-1026.5 1095.59,-1026.5 1095.59,-1026.5 1089.59,-1026.5 1083.59,-1020.5 1083.59,-1014.5 1083.59,-1014.5 1083.59,-882.5 1083.59,-882.5 1083.59,-876.5 1089.59,-870.5 1095.59,-870.5"/>
<text text-anchor="middle" x="1207.45" y="-1011.3" font-family="Times,serif" font-size="14.00">Company</text>
<polyline fill="none" stroke="black" points="1083.59,-1004.5 1331.31,-1004.5 "/>
<text text-anchor="start" x="1091.59" y="-989.3" font-family="Times,serif" font-size="14.00">updated_at :timestamp without time zone</text>
<text text-anchor="start" x="1091.59" y="-975.3" font-family="Times,serif" font-size="14.00">name :character varying</text>
<text text-anchor="start" x="1091.59" y="-961.3" font-family="Times,serif" font-size="14.00">email :character varying</text>
<text text-anchor="start" x="1091.59" y="-947.3" font-family="Times,serif" font-size="14.00">address :character varying</text>
<text text-anchor="start" x="1091.59" y="-933.3" font-family="Times,serif" font-size="14.00">phone :integer</text>
<text text-anchor="start" x="1091.59" y="-919.3" font-family="Times,serif" font-size="14.00">photo :character varying</text>
<text text-anchor="start" x="1091.59" y="-905.3" font-family="Times,serif" font-size="14.00">user_id :integer</text>
<text text-anchor="start" x="1091.59" y="-891.3" font-family="Times,serif" font-size="14.00">created_at :timestamp without time zone</text>
<text text-anchor="start" x="1091.59" y="-877.3" font-family="Times,serif" font-size="14.00">id :integer</text>
</g>
<!-- House -->
<g id="node7" class="node"><title>House</title>
<path fill="none" stroke="black" d="M819.587,-607.5C819.587,-607.5 1043.31,-607.5 1043.31,-607.5 1049.31,-607.5 1055.31,-613.5 1055.31,-619.5 1055.31,-619.5 1055.31,-793.5 1055.31,-793.5 1055.31,-799.5 1049.31,-805.5 1043.31,-805.5 1043.31,-805.5 819.587,-805.5 819.587,-805.5 813.587,-805.5 807.587,-799.5 807.587,-793.5 807.587,-793.5 807.587,-619.5 807.587,-619.5 807.587,-613.5 813.587,-607.5 819.587,-607.5"/>
<text text-anchor="middle" x="931.45" y="-790.3" font-family="Times,serif" font-size="14.00">House</text>
<polyline fill="none" stroke="black" points="807.587,-783.5 1055.31,-783.5 "/>
<text text-anchor="start" x="815.587" y="-768.3" font-family="Times,serif" font-size="14.00">region_id :integer</text>
<text text-anchor="start" x="815.587" y="-754.3" font-family="Times,serif" font-size="14.00">name :character varying</text>
<text text-anchor="start" x="815.587" y="-740.3" font-family="Times,serif" font-size="14.00">mts :integer</text>
<text text-anchor="start" x="815.587" y="-726.3" font-family="Times,serif" font-size="14.00">description :character varying</text>
<text text-anchor="start" x="815.587" y="-712.3" font-family="Times,serif" font-size="14.00">price :integer</text>
<text text-anchor="start" x="815.587" y="-698.3" font-family="Times,serif" font-size="14.00">photo :character varying</text>
<text text-anchor="start" x="815.587" y="-684.3" font-family="Times,serif" font-size="14.00">fav :boolean</text>
<text text-anchor="start" x="815.587" y="-670.3" font-family="Times,serif" font-size="14.00">user_id :integer</text>
<text text-anchor="start" x="815.587" y="-656.3" font-family="Times,serif" font-size="14.00">company_id :integer</text>
<text text-anchor="start" x="815.587" y="-642.3" font-family="Times,serif" font-size="14.00">created_at :timestamp without time zone</text>
<text text-anchor="start" x="815.587" y="-628.3" font-family="Times,serif" font-size="14.00">updated_at :timestamp without time zone</text>
<text text-anchor="start" x="815.587" y="-614.3" font-family="Times,serif" font-size="14.00">id :integer</text>
</g>
<!-- Company&#45;&gt;House -->
<g id="edge1" class="edge"><title>Company&#45;&gt;House</title>
<path fill="none" stroke="#4b99d1" d="M1112.46,-864.901C1093.01,-847.991 1072.3,-829.979 1052.09,-812.406"/>
<ellipse fill="none" stroke="#4b99d1" cx="1115.58" cy="-867.617" rx="4.00002" ry="4.00002"/>
<polygon fill="#4b99d1" stroke="#4b99d1" points="1051.92,-812.258 1047.33,-802.3 1048.15,-808.977 1044.38,-805.696 1044.38,-805.696 1044.38,-805.696 1048.15,-808.977 1041.42,-809.092 1051.92,-812.258 1051.92,-812.258"/>
</g>
<!-- Fav -->
<g id="node6" class="node"><title>Fav</title>
<path fill="none" stroke="black" d="M962.587,-470.5C962.587,-470.5 1186.31,-470.5 1186.31,-470.5 1192.31,-470.5 1198.31,-476.5 1198.31,-482.5 1198.31,-482.5 1198.31,-558.5 1198.31,-558.5 1198.31,-564.5 1192.31,-570.5 1186.31,-570.5 1186.31,-570.5 962.587,-570.5 962.587,-570.5 956.587,-570.5 950.587,-564.5 950.587,-558.5 950.587,-558.5 950.587,-482.5 950.587,-482.5 950.587,-476.5 956.587,-470.5 962.587,-470.5"/>
<text text-anchor="middle" x="1074.45" y="-555.3" font-family="Times,serif" font-size="14.00">Fav</text>
<polyline fill="none" stroke="black" points="950.587,-548.5 1198.31,-548.5 "/>
<text text-anchor="start" x="958.587" y="-533.3" font-family="Times,serif" font-size="14.00">id :integer</text>
<text text-anchor="start" x="958.587" y="-519.3" font-family="Times,serif" font-size="14.00">user_id :integer</text>
<text text-anchor="start" x="958.587" y="-505.3" font-family="Times,serif" font-size="14.00">house_id :integer</text>
<text text-anchor="start" x="958.587" y="-491.3" font-family="Times,serif" font-size="14.00">created_at :timestamp without time zone</text>
<text text-anchor="start" x="958.587" y="-477.3" font-family="Times,serif" font-size="14.00">updated_at :timestamp without time zone</text>
</g>
<!-- Fav&#45;&gt;House -->
<g id="edge3" class="edge"><title>Fav&#45;&gt;House</title>
<path fill="none" stroke="#871924" d="M1037.46,-577.153C1032.13,-584.266 1026.47,-591.724 1020.65,-599.315"/>
<ellipse fill="none" stroke="#871924" cx="1039.86" cy="-573.931" rx="4.00002" ry="4.00002"/>
<polygon fill="#871924" stroke="#871924" points="1020.6,-599.381 1010.94,-604.56 1017.55,-603.343 1014.5,-607.305 1014.5,-607.305 1014.5,-607.305 1017.55,-603.343 1018.07,-610.05 1020.6,-599.381 1020.6,-599.381"/>
</g>
<!-- User -->
<g id="node10" class="node"><title>User</title>
<path fill="none" stroke="black" d="M926.815,-165.5C926.815,-165.5 1222.08,-165.5 1222.08,-165.5 1228.08,-165.5 1234.08,-171.5 1234.08,-177.5 1234.08,-177.5 1234.08,-421.5 1234.08,-421.5 1234.08,-427.5 1228.08,-433.5 1222.08,-433.5 1222.08,-433.5 926.815,-433.5 926.815,-433.5 920.815,-433.5 914.815,-427.5 914.815,-421.5 914.815,-421.5 914.815,-177.5 914.815,-177.5 914.815,-171.5 920.815,-165.5 926.815,-165.5"/>
<text text-anchor="middle" x="1074.45" y="-418.3" font-family="Times,serif" font-size="14.00">User</text>
<polyline fill="none" stroke="black" points="914.815,-411.5 1234.08,-411.5 "/>
<text text-anchor="start" x="922.815" y="-396.3" font-family="Times,serif" font-size="14.00">role :integer</text>
<text text-anchor="start" x="922.815" y="-382.3" font-family="Times,serif" font-size="14.00">name :character varying</text>
<text text-anchor="start" x="922.815" y="-368.3" font-family="Times,serif" font-size="14.00">email :character varying</text>
<text text-anchor="start" x="922.815" y="-354.3" font-family="Times,serif" font-size="14.00">phone :integer</text>
<text text-anchor="start" x="922.815" y="-340.3" font-family="Times,serif" font-size="14.00">photo :character varying</text>
<text text-anchor="start" x="922.815" y="-326.3" font-family="Times,serif" font-size="14.00">created_at :timestamp without time zone</text>
<text text-anchor="start" x="922.815" y="-312.3" font-family="Times,serif" font-size="14.00">updated_at :timestamp without time zone</text>
<text text-anchor="start" x="922.815" y="-298.3" font-family="Times,serif" font-size="14.00">encrypted_password :character varying</text>
<text text-anchor="start" x="922.815" y="-284.3" font-family="Times,serif" font-size="14.00">reset_password_token :character varying</text>
<text text-anchor="start" x="922.815" y="-270.3" font-family="Times,serif" font-size="14.00">reset_password_sent_at :timestamp without time zone</text>
<text text-anchor="start" x="922.815" y="-256.3" font-family="Times,serif" font-size="14.00">remember_created_at :timestamp without time zone</text>
<text text-anchor="start" x="922.815" y="-242.3" font-family="Times,serif" font-size="14.00">sign_in_count :integer</text>
<text text-anchor="start" x="922.815" y="-228.3" font-family="Times,serif" font-size="14.00">current_sign_in_at :timestamp without time zone</text>
<text text-anchor="start" x="922.815" y="-214.3" font-family="Times,serif" font-size="14.00">last_sign_in_at :timestamp without time zone</text>
<text text-anchor="start" x="922.815" y="-200.3" font-family="Times,serif" font-size="14.00">current_sign_in_ip :inet</text>
<text text-anchor="start" x="922.815" y="-186.3" font-family="Times,serif" font-size="14.00">last_sign_in_ip :inet</text>
<text text-anchor="start" x="922.815" y="-172.3" font-family="Times,serif" font-size="14.00">id :integer</text>
</g>
<!-- Fav&#45;&gt;User -->
<g id="edge2" class="edge"><title>Fav&#45;&gt;User</title>
<path fill="none" stroke="#bba114" d="M1068.44,-462.268C1068.26,-456.36 1068.11,-450.187 1067.99,-443.845"/>
<ellipse fill="none" stroke="#bba114" cx="1068.57" cy="-466.354" rx="4" ry="4"/>
<polygon fill="#bba114" stroke="#bba114" points="1067.99,-443.756 1072.34,-433.689 1067.92,-438.756 1067.84,-433.757 1067.84,-433.757 1067.84,-433.757 1067.92,-438.756 1063.34,-433.825 1067.99,-443.756 1067.99,-443.756"/>
</g>
<!-- House&#45;&gt;Fav -->
<g id="edge4" class="edge"><title>House&#45;&gt;Fav</title>
<path fill="none" stroke="#16bc18" d="M1006.14,-600.789C1012.03,-593.294 1017.89,-585.915 1023.57,-578.854"/>
<ellipse fill="none" stroke="#16bc18" cx="1003.5" cy="-604.157" rx="4.00002" ry="4.00002"/>
<polygon fill="#16bc18" stroke="#16bc18" points="1023.86,-578.502 1033.64,-573.552 1027,-574.613 1030.14,-570.724 1030.14,-570.724 1030.14,-570.724 1027,-574.613 1026.64,-567.895 1023.86,-578.502 1023.86,-578.502"/>
</g>
<!-- Quotation -->
<g id="node8" class="node"><title>Quotation</title>
<path fill="none" stroke="black" d="M763.587,-0.5C763.587,-0.5 987.312,-0.5 987.312,-0.5 993.312,-0.5 999.312,-6.5 999.312,-12.5 999.312,-12.5 999.312,-116.5 999.312,-116.5 999.312,-122.5 993.312,-128.5 987.312,-128.5 987.312,-128.5 763.587,-128.5 763.587,-128.5 757.587,-128.5 751.587,-122.5 751.587,-116.5 751.587,-116.5 751.587,-12.5 751.587,-12.5 751.587,-6.5 757.587,-0.5 763.587,-0.5"/>
<text text-anchor="middle" x="875.45" y="-113.3" font-family="Times,serif" font-size="14.00">Quotation</text>
<polyline fill="none" stroke="black" points="751.587,-106.5 999.312,-106.5 "/>
<text text-anchor="start" x="759.587" y="-91.3" font-family="Times,serif" font-size="14.00">user_id :integer</text>
<text text-anchor="start" x="759.587" y="-77.3" font-family="Times,serif" font-size="14.00">subject :character varying</text>
<text text-anchor="start" x="759.587" y="-63.3" font-family="Times,serif" font-size="14.00">message :character varying</text>
<text text-anchor="start" x="759.587" y="-49.3" font-family="Times,serif" font-size="14.00">id :integer</text>
<text text-anchor="start" x="759.587" y="-35.3" font-family="Times,serif" font-size="14.00">house_id :integer</text>
<text text-anchor="start" x="759.587" y="-21.3" font-family="Times,serif" font-size="14.00">created_at :timestamp without time zone</text>
<text text-anchor="start" x="759.587" y="-7.3" font-family="Times,serif" font-size="14.00">updated_at :timestamp without time zone</text>
</g>
<!-- House&#45;&gt;Quotation -->
<g id="edge5" class="edge"><title>House&#45;&gt;Quotation</title>
<path fill="none" stroke="#d46d27" d="M912.208,-599.376C911.251,-589.781 910.332,-580.213 909.45,-571 903.619,-510.116 901.82,-494.926 896.45,-434 887.433,-331.713 877.971,-213.363 874.336,-138.971"/>
<ellipse fill="none" stroke="#d46d27" cx="912.619" cy="-603.455" rx="4" ry="4"/>
<polygon fill="#d46d27" stroke="#d46d27" points="874.327,-138.761 878.358,-128.563 874.095,-133.766 873.863,-128.771 873.863,-128.771 873.863,-128.771 874.095,-133.766 869.368,-128.98 874.327,-138.761 874.327,-138.761"/>
</g>
<!-- Quotation&#45;&gt;House -->
<g id="edge6" class="edge"><title>Quotation&#45;&gt;House</title>
<path fill="none" stroke="#65d518" d="M887.747,-137.154C895.816,-211.426 905.36,-330.876 914.45,-434 919.82,-494.926 921.619,-510.116 927.45,-571 928.27,-579.568 929.123,-588.444 929.955,-597.362"/>
<ellipse fill="none" stroke="#65d518" cx="887.26" cy="-132.747" rx="4" ry="4"/>
<polygon fill="#65d518" stroke="#65d518" points="929.965,-597.477 926.401,-607.847 930.424,-602.456 930.882,-607.435 930.882,-607.435 930.882,-607.435 930.424,-602.456 935.363,-607.022 929.965,-597.477 929.965,-597.477"/>
</g>
<!-- Region -->
<g id="node9" class="node"><title>Region</title>
<path fill="none" stroke="black" d="M819.587,-905.5C819.587,-905.5 1043.31,-905.5 1043.31,-905.5 1049.31,-905.5 1055.31,-911.5 1055.31,-917.5 1055.31,-917.5 1055.31,-979.5 1055.31,-979.5 1055.31,-985.5 1049.31,-991.5 1043.31,-991.5 1043.31,-991.5 819.587,-991.5 819.587,-991.5 813.587,-991.5 807.587,-985.5 807.587,-979.5 807.587,-979.5 807.587,-917.5 807.587,-917.5 807.587,-911.5 813.587,-905.5 819.587,-905.5"/>
<text text-anchor="middle" x="931.45" y="-976.3" font-family="Times,serif" font-size="14.00">Region</text>
<polyline fill="none" stroke="black" points="807.587,-969.5 1055.31,-969.5 "/>
<text text-anchor="start" x="815.587" y="-954.3" font-family="Times,serif" font-size="14.00">id :integer</text>
<text text-anchor="start" x="815.587" y="-940.3" font-family="Times,serif" font-size="14.00">name :character varying</text>
<text text-anchor="start" x="815.587" y="-926.3" font-family="Times,serif" font-size="14.00">created_at :timestamp without time zone</text>
<text text-anchor="start" x="815.587" y="-912.3" font-family="Times,serif" font-size="14.00">updated_at :timestamp without time zone</text>
</g>
<!-- Region&#45;&gt;House -->
<g id="edge7" class="edge"><title>Region&#45;&gt;House</title>
<path fill="none" stroke="#5d98b1" d="M931.45,-897.405C931.45,-873.62 931.45,-844.211 931.45,-815.699"/>
<ellipse fill="none" stroke="#5d98b1" cx="931.45" cy="-901.421" rx="4" ry="4"/>
<polygon fill="#5d98b1" stroke="#5d98b1" points="931.45,-815.662 935.95,-805.662 931.45,-810.662 931.45,-805.662 931.45,-805.662 931.45,-805.662 931.45,-810.662 926.95,-805.662 931.45,-815.662 931.45,-815.662"/>
</g>
<!-- User&#45;&gt;Company -->
<g id="edge10" class="edge"><title>User&#45;&gt;Company</title>
<path fill="none" stroke="#28cfcb" d="M1194.94,-440.916C1199.8,-450.416 1204.04,-460.14 1207.45,-470 1252.36,-599.974 1239.07,-761.994 1224.14,-859.96"/>
<ellipse fill="none" stroke="#28cfcb" cx="1192.99" cy="-437.23" rx="4.00002" ry="4.00002"/>
<polygon fill="#28cfcb" stroke="#28cfcb" points="1224.1,-860.236 1218.11,-869.42 1223.33,-865.176 1222.56,-870.116 1222.56,-870.116 1222.56,-870.116 1223.33,-865.176 1227,-870.811 1224.1,-860.236 1224.1,-860.236"/>
</g>
<!-- User&#45;&gt;Fav -->
<g id="edge8" class="edge"><title>User&#45;&gt;Fav</title>
<path fill="none" stroke="#9b3e79" d="M1080.94,-441.867C1080.83,-448.209 1080.69,-454.395 1080.52,-460.329"/>
<ellipse fill="none" stroke="#9b3e79" cx="1081" cy="-437.756" rx="4" ry="4"/>
<polygon fill="#9b3e79" stroke="#9b3e79" points="1080.52,-460.358 1075.69,-470.204 1080.36,-465.355 1080.19,-470.352 1080.19,-470.352 1080.19,-470.352 1080.36,-465.355 1084.69,-470.501 1080.52,-460.358 1080.52,-460.358"/>
</g>
<!-- User&#45;&gt;House -->
<g id="edge9" class="edge"><title>User&#45;&gt;House</title>
<path fill="none" stroke="#72b679" d="M954.56,-440.891C949.534,-450.41 945.091,-460.144 941.45,-470 926.678,-509.984 922.272,-556.418 922.241,-597.434"/>
<ellipse fill="none" stroke="#72b679" cx="956.595" cy="-437.165" rx="4.00002" ry="4.00002"/>
<polygon fill="#72b679" stroke="#72b679" points="922.241,-597.463 917.82,-607.498 922.28,-602.463 922.319,-607.463 922.319,-607.463 922.319,-607.463 922.28,-602.463 926.819,-607.427 922.241,-597.463 922.241,-597.463"/>
</g>
<!-- User&#45;&gt;Quotation -->
<g id="edge11" class="edge"><title>User&#45;&gt;Quotation</title>
<path fill="none" stroke="#0b688b" d="M955.374,-159.08C948.749,-151.323 942.244,-143.706 935.984,-136.376"/>
<ellipse fill="none" stroke="#0b688b" cx="958.112" cy="-162.285" rx="4.00002" ry="4.00002"/>
<polygon fill="#0b688b" stroke="#0b688b" points="935.787,-136.146 932.714,-125.619 932.539,-132.344 929.292,-128.542 929.292,-128.542 929.292,-128.542 932.539,-132.344 925.87,-131.464 935.787,-136.146 935.787,-136.146"/>
</g>
</g>
</svg>
